# xmcd
#
# Track frame offsets: 
#        150
#        15231
#        33104
#        49211
#        58045
#        69535
#        86997
#        101866
#        109289
#        125765
#
# Disc length: 2084 seconds
#
# Revision: 0
# Processed by: cddbd v1.5.2PL0 Copyright (c) Steve Scherf et al.
# Submitted via: ExactAudioCopy v1.1
#
DISCID=8a08220a
DTITLE=Wormed - Krighsu
DYEAR=2016
DGENRE=Death Metal
TTITLE0=Pseudo-Horizon
TTITLE1=Neomorph Mindkind
TTITLE2=Agliptian Codex Cyborgization
TTITLE3=The Singularitarianism
TTITLE4=Eukaryotic Hex Swarm
TTITLE5=Computronium Pulsar Nanarchy
TTITLE6=A-Life Omega Point
TTITLE7=57889330816.1
TTITLE8=Zeroth-Energy Graviton
TTITLE9=Molecular Winds
EXTD=
EXTT0=
EXTT1=
EXTT2=
EXTT3=
EXTT4=
EXTT5=
EXTT6=
EXTT7=
EXTT8=
EXTT9=
PLAYORDER=
